# xmcd
#
# Track frame offsets:
# 150
# 14287
# 25499
# 37079
# 48806
# 60576
# 71716
# 81986
# 95717
# 112607
#
# Disc length: 1675 seconds
#
#
# Revision: 0
# Processed by: cddbd v1.5.1PL0 Copyright (c) Steve Scherf et al.
# Submitted via: FreeRIP 2.90 
#
DISCID=7e06890a
DTITLE=Conway Twitty - Greatest Hits - Conway Twitty
DYEAR=1900
DGENRE=Country
TTITLE0=You Never Been This Far Before
TTITLE1=Hello Darkin'
TTITLE2=To See My Angel Cry
TTITLE3=(Lying Here With) Linda On My Mind
TTITLE4=I'm Not Through Loving You Yat
TTITLE5=It's Only Make Believe
TTITLE6=I Can't Believe She Gives It All To Me
TTITLE7=Baby's Gone
TTITLE8=Don't Cry Joni
TTITLE9=Danny Boy
EXTD=
EXTT0=
EXTT1=
EXTT2=
EXTT3=
EXTT4=
EXTT5=
EXTT6=
EXTT7=
EXTT8=
EXTT9=
PLAYORDER=
